<?xml version="1.0" encoding="utf-8"?>
<svg xmlns="http://www.w3.org/2000/svg" xmlns:xlink="http://www.w3.org/1999/xlink" width="600" height="600" viewBox="0 0 2400 2400">
<defs>
  <clipPath id="clip560">
    <rect x="0" y="0" width="2400" height="2400"/>
  </clipPath>
</defs>
<path clip-path="url(#clip560)" d="
M0 2400 L2400 2400 L2400 0 L0 0  Z
  " fill="#ffffff" fill-rule="evenodd" fill-opacity="1"/>
<defs>
  <clipPath id="clip561">
    <rect x="480" y="240" width="1681" height="1681"/>
  </clipPath>
</defs>
<path clip-path="url(#clip560)" d="
M273.302 2174.14 L2352.76 2174.14 L2352.76 153.712 L273.302 153.712  Z
  " fill="#ffffff" fill-rule="evenodd" fill-opacity="1"/>
<defs>
  <clipPath id="clip562">
    <rect x="273" y="153" width="2080" height="2021"/>
  </clipPath>
</defs>
<polyline clip-path="url(#clip562)" style="stroke:#000000; stroke-linecap:butt; stroke-linejoin:round; stroke-width:2; stroke-opacity:0.1; fill:none" points="
  329.687,2174.14 329.687,153.712 
  "/>
<polyline clip-path="url(#clip562)" style="stroke:#000000; stroke-linecap:butt; stroke-linejoin:round; stroke-width:2; stroke-opacity:0.1; fill:none" points="
  825.963,2174.14 825.963,153.712 
  "/>
<polyline clip-path="url(#clip562)" style="stroke:#000000; stroke-linecap:butt; stroke-linejoin:round; stroke-width:2; stroke-opacity:0.1; fill:none" points="
  1322.24,2174.14 1322.24,153.712 
  "/>
<polyline clip-path="url(#clip562)" style="stroke:#000000; stroke-linecap:butt; stroke-linejoin:round; stroke-width:2; stroke-opacity:0.1; fill:none" points="
  1818.52,2174.14 1818.52,153.712 
  "/>
<polyline clip-path="url(#clip562)" style="stroke:#000000; stroke-linecap:butt; stroke-linejoin:round; stroke-width:2; stroke-opacity:0.1; fill:none" points="
  2314.79,2174.14 2314.79,153.712 
  "/>
<polyline clip-path="url(#clip560)" style="stroke:#000000; stroke-linecap:butt; stroke-linejoin:round; stroke-width:4; stroke-opacity:1; fill:none" points="
  273.302,2174.14 2352.76,2174.14 
  "/>
<polyline clip-path="url(#clip560)" style="stroke:#000000; stroke-linecap:butt; stroke-linejoin:round; stroke-width:4; stroke-opacity:1; fill:none" points="
  329.687,2174.14 329.687,2155.24 
  "/>
<polyline clip-path="url(#clip560)" style="stroke:#000000; stroke-linecap:butt; stroke-linejoin:round; stroke-width:4; stroke-opacity:1; fill:none" points="
  825.963,2174.14 825.963,2155.24 
  "/>
<polyline clip-path="url(#clip560)" style="stroke:#000000; stroke-linecap:butt; stroke-linejoin:round; stroke-width:4; stroke-opacity:1; fill:none" points="
  1322.24,2174.14 1322.24,2155.24 
  "/>
<polyline clip-path="url(#clip560)" style="stroke:#000000; stroke-linecap:butt; stroke-linejoin:round; stroke-width:4; stroke-opacity:1; fill:none" points="
  1818.52,2174.14 1818.52,2155.24 
  "/>
<polyline clip-path="url(#clip560)" style="stroke:#000000; stroke-linecap:butt; stroke-linejoin:round; stroke-width:4; stroke-opacity:1; fill:none" points="
  2314.79,2174.14 2314.79,2155.24 
  "/>
<path clip-path="url(#clip560)" d="M291.99 2205.06 Q288.379 2205.06 286.55 2208.62 Q284.745 2212.16 284.745 2219.29 Q284.745 2226.4 286.55 2229.97 Q288.379 2233.51 291.99 2233.51 Q295.624 2233.51 297.43 2229.97 Q299.258 2226.4 299.258 2219.29 Q299.258 2212.16 297.43 2208.62 Q295.624 2205.06 291.99 2205.06 M291.99 2201.35 Q297.8 2201.35 300.856 2205.96 Q303.934 2210.54 303.934 2219.29 Q303.934 2228.02 300.856 2232.63 Q297.8 2237.21 291.99 2237.21 Q286.18 2237.21 283.101 2232.63 Q280.046 2228.02 280.046 2219.29 Q280.046 2210.54 283.101 2205.96 Q286.18 2201.35 291.99 2201.35 Z" fill="#000000" fill-rule="evenodd" fill-opacity="1" /><path clip-path="url(#clip560)" d="M312.152 2230.66 L317.036 2230.66 L317.036 2236.54 L312.152 2236.54 L312.152 2230.66 Z" fill="#000000" fill-rule="evenodd" fill-opacity="1" /><path clip-path="url(#clip560)" d="M337.221 2205.06 Q333.61 2205.06 331.781 2208.62 Q329.976 2212.16 329.976 2219.29 Q329.976 2226.4 331.781 2229.97 Q333.61 2233.51 337.221 2233.51 Q340.855 2233.51 342.661 2229.97 Q344.49 2226.4 344.49 2219.29 Q344.49 2212.16 342.661 2208.62 Q340.855 2205.06 337.221 2205.06 M337.221 2201.35 Q343.031 2201.35 346.087 2205.96 Q349.166 2210.54 349.166 2219.29 Q349.166 2228.02 346.087 2232.63 Q343.031 2237.21 337.221 2237.21 Q331.411 2237.21 328.332 2232.63 Q325.277 2228.02 325.277 2219.29 Q325.277 2210.54 328.332 2205.96 Q331.411 2201.35 337.221 2201.35 Z" fill="#000000" fill-rule="evenodd" fill-opacity="1" /><path clip-path="url(#clip560)" d="M367.383 2205.06 Q363.772 2205.06 361.943 2208.62 Q360.138 2212.16 360.138 2219.29 Q360.138 2226.4 361.943 2229.97 Q363.772 2233.51 367.383 2233.51 Q371.017 2233.51 372.823 2229.97 Q374.652 2226.4 374.652 2219.29 Q374.652 2212.16 372.823 2208.62 Q371.017 2205.06 367.383 2205.06 M367.383 2201.35 Q373.193 2201.35 376.249 2205.96 Q379.327 2210.54 379.327 2219.29 Q379.327 2228.02 376.249 2232.63 Q373.193 2237.21 367.383 2237.21 Q361.573 2237.21 358.494 2232.63 Q355.439 2228.02 355.439 2219.29 Q355.439 2210.54 358.494 2205.96 Q361.573 2201.35 367.383 2201.35 Z" fill="#000000" fill-rule="evenodd" fill-opacity="1" /><path clip-path="url(#clip560)" d="M788.764 2205.06 Q785.153 2205.06 783.325 2208.62 Q781.519 2212.16 781.519 2219.29 Q781.519 2226.4 783.325 2229.97 Q785.153 2233.51 788.764 2233.51 Q792.399 2233.51 794.204 2229.97 Q796.033 2226.4 796.033 2219.29 Q796.033 2212.16 794.204 2208.62 Q792.399 2205.06 788.764 2205.06 M788.764 2201.35 Q794.575 2201.35 797.63 2205.96 Q800.709 2210.54 800.709 2219.29 Q800.709 2228.02 797.63 2232.63 Q794.575 2237.21 788.764 2237.21 Q782.954 2237.21 779.876 2232.63 Q776.82 2228.02 776.82 2219.29 Q776.82 2210.54 779.876 2205.96 Q782.954 2201.35 788.764 2201.35 Z" fill="#000000" fill-rule="evenodd" fill-opacity="1" /><path clip-path="url(#clip560)" d="M808.926 2230.66 L813.811 2230.66 L813.811 2236.54 L808.926 2236.54 L808.926 2230.66 Z" fill="#000000" fill-rule="evenodd" fill-opacity="1" /><path clip-path="url(#clip560)" d="M828.024 2232.6 L844.343 2232.6 L844.343 2236.54 L822.399 2236.54 L822.399 2232.6 Q825.061 2229.85 829.644 2225.22 Q834.25 2220.57 835.431 2219.23 Q837.676 2216.7 838.556 2214.97 Q839.459 2213.21 839.459 2211.52 Q839.459 2208.76 837.514 2207.03 Q835.593 2205.29 832.491 2205.29 Q830.292 2205.29 827.838 2206.05 Q825.408 2206.82 822.63 2208.37 L822.63 2203.65 Q825.454 2202.51 827.908 2201.93 Q830.361 2201.35 832.399 2201.35 Q837.769 2201.35 840.963 2204.04 Q844.158 2206.73 844.158 2211.22 Q844.158 2213.35 843.348 2215.27 Q842.56 2217.16 840.454 2219.76 Q839.875 2220.43 836.773 2223.65 Q833.672 2226.84 828.024 2232.6 Z" fill="#000000" fill-rule="evenodd" fill-opacity="1" /><path clip-path="url(#clip560)" d="M854.204 2201.98 L872.56 2201.98 L872.56 2205.92 L858.486 2205.92 L858.486 2214.39 Q859.505 2214.04 860.523 2213.88 Q861.542 2213.69 862.56 2213.69 Q868.347 2213.69 871.727 2216.86 Q875.107 2220.04 875.107 2225.45 Q875.107 2231.03 871.634 2234.13 Q868.162 2237.21 861.843 2237.21 Q859.667 2237.21 857.398 2236.84 Q855.153 2236.47 852.746 2235.73 L852.746 2231.03 Q854.829 2232.16 857.051 2232.72 Q859.273 2233.28 861.75 2233.28 Q865.755 2233.28 868.093 2231.17 Q870.431 2229.06 870.431 2225.45 Q870.431 2221.84 868.093 2219.73 Q865.755 2217.63 861.75 2217.63 Q859.875 2217.63 858 2218.04 Q856.148 2218.46 854.204 2219.34 L854.204 2201.98 Z" fill="#000000" fill-rule="evenodd" fill-opacity="1" /><path clip-path="url(#clip560)" d="M1284.54 2205.06 Q1280.93 2205.06 1279.1 2208.62 Q1277.3 2212.16 1277.3 2219.29 Q1277.3 2226.4 1279.1 2229.97 Q1280.93 2233.51 1284.54 2233.51 Q1288.18 2233.51 1289.98 2229.97 Q1291.81 2226.4 1291.81 2219.29 Q1291.81 2212.16 1289.98 2208.62 Q1288.18 2205.06 1284.54 2205.06 M1284.54 2201.35 Q1290.35 2201.35 1293.41 2205.96 Q1296.49 2210.54 1296.49 2219.29 Q1296.49 2228.02 1293.41 2232.63 Q1290.35 2237.21 1284.54 2237.21 Q1278.73 2237.21 1275.65 2232.63 Q1272.6 2228.02 1272.6 2219.29 Q1272.6 2210.54 1275.65 2205.96 Q1278.73 2201.35 1284.54 2201.35 Z" fill="#000000" fill-rule="evenodd" fill-opacity="1" /><path clip-path="url(#clip560)" d="M1304.71 2230.66 L1309.59 2230.66 L1309.59 2236.54 L1304.71 2236.54 L1304.71 2230.66 Z" fill="#000000" fill-rule="evenodd" fill-opacity="1" /><path clip-path="url(#clip560)" d="M1319.82 2201.98 L1338.18 2201.98 L1338.18 2205.92 L1324.1 2205.92 L1324.1 2214.39 Q1325.12 2214.04 1326.14 2213.88 Q1327.16 2213.69 1328.18 2213.69 Q1333.96 2213.69 1337.34 2216.86 Q1340.72 2220.04 1340.72 2225.45 Q1340.72 2231.03 1337.25 2234.13 Q1333.78 2237.21 1327.46 2237.21 Q1325.28 2237.21 1323.02 2236.84 Q1320.77 2236.47 1318.36 2235.73 L1318.36 2231.03 Q1320.45 2232.16 1322.67 2232.72 Q1324.89 2233.28 1327.37 2233.28 Q1331.37 2233.28 1333.71 2231.17 Q1336.05 2229.06 1336.05 2225.45 Q1336.05 2221.84 1333.71 2219.73 Q1331.37 2217.63 1327.37 2217.63 Q1325.49 2217.63 1323.62 2218.04 Q1321.77 2218.46 1319.82 2219.34 L1319.82 2201.98 Z" fill="#000000" fill-rule="evenodd" fill-opacity="1" /><path clip-path="url(#clip560)" d="M1359.94 2205.06 Q1356.33 2205.06 1354.5 2208.62 Q1352.69 2212.16 1352.69 2219.29 Q1352.69 2226.4 1354.5 2229.97 Q1356.33 2233.51 1359.94 2233.51 Q1363.57 2233.51 1365.38 2229.97 Q1367.21 2226.4 1367.21 2219.29 Q1367.21 2212.16 1365.38 2208.62 Q1363.57 2205.06 1359.94 2205.06 M1359.94 2201.35 Q1365.75 2201.35 1368.8 2205.96 Q1371.88 2210.54 1371.88 2219.29 Q1371.88 2228.02 1368.8 2232.63 Q1365.75 2237.21 1359.94 2237.21 Q1354.13 2237.21 1351.05 2232.63 Q1347.99 2228.02 1347.99 2219.29 Q1347.99 2210.54 1351.05 2205.96 Q1354.13 2201.35 1359.94 2201.35 Z" fill="#000000" fill-rule="evenodd" fill-opacity="1" /><path clip-path="url(#clip560)" d="M1781.32 2205.06 Q1777.71 2205.06 1775.88 2208.62 Q1774.07 2212.16 1774.07 2219.29 Q1774.07 2226.4 1775.88 2229.97 Q1777.71 2233.51 1781.32 2233.51 Q1784.95 2233.51 1786.76 2229.97 Q1788.59 2226.4 1788.59 2219.29 Q1788.59 2212.16 1786.76 2208.62 Q1784.95 2205.06 1781.32 2205.06 M1781.32 2201.35 Q1787.13 2201.35 1790.18 2205.96 Q1793.26 2210.54 1793.26 2219.29 Q1793.26 2228.02 1790.18 2232.63 Q1787.13 2237.21 1781.32 2237.21 Q1775.51 2237.21 1772.43 2232.63 Q1769.37 2228.02 1769.37 2219.29 Q1769.37 2210.54 1772.43 2205.96 Q1775.51 2201.35 1781.32 2201.35 Z" fill="#000000" fill-rule="evenodd" fill-opacity="1" /><path clip-path="url(#clip560)" d="M1801.48 2230.66 L1806.36 2230.66 L1806.36 2236.54 L1801.48 2236.54 L1801.48 2230.66 Z" fill="#000000" fill-rule="evenodd" fill-opacity="1" /><path clip-path="url(#clip560)" d="M1815.37 2201.98 L1837.59 2201.98 L1837.59 2203.97 L1825.04 2236.54 L1820.16 2236.54 L1831.97 2205.92 L1815.37 2205.92 L1815.37 2201.98 Z" fill="#000000" fill-rule="evenodd" fill-opacity="1" /><path clip-path="url(#clip560)" d="M1846.76 2201.98 L1865.11 2201.98 L1865.11 2205.92 L1851.04 2205.92 L1851.04 2214.39 Q1852.06 2214.04 1853.08 2213.88 Q1854.1 2213.69 1855.11 2213.69 Q1860.9 2213.69 1864.28 2216.86 Q1867.66 2220.04 1867.66 2225.45 Q1867.66 2231.03 1864.19 2234.13 Q1860.72 2237.21 1854.4 2237.21 Q1852.22 2237.21 1849.95 2236.84 Q1847.71 2236.47 1845.3 2235.73 L1845.3 2231.03 Q1847.38 2232.16 1849.6 2232.72 Q1851.83 2233.28 1854.3 2233.28 Q1858.31 2233.28 1860.65 2231.17 Q1862.98 2229.06 1862.98 2225.45 Q1862.98 2221.84 1860.65 2219.73 Q1858.31 2217.63 1854.3 2217.63 Q1852.43 2217.63 1850.55 2218.04 Q1848.7 2218.46 1846.76 2219.34 L1846.76 2201.98 Z" fill="#000000" fill-rule="evenodd" fill-opacity="1" /><path clip-path="url(#clip560)" d="M2266.87 2232.6 L2274.5 2232.6 L2274.5 2206.24 L2266.19 2207.91 L2266.19 2203.65 L2274.46 2201.98 L2279.13 2201.98 L2279.13 2232.6 L2286.77 2232.6 L2286.77 2236.54 L2266.87 2236.54 L2266.87 2232.6 Z" fill="#000000" fill-rule="evenodd" fill-opacity="1" /><path clip-path="url(#clip560)" d="M2296.22 2230.66 L2301.1 2230.66 L2301.1 2236.54 L2296.22 2236.54 L2296.22 2230.66 Z" fill="#000000" fill-rule="evenodd" fill-opacity="1" /><path clip-path="url(#clip560)" d="M2321.29 2205.06 Q2317.68 2205.06 2315.85 2208.62 Q2314.04 2212.16 2314.04 2219.29 Q2314.04 2226.4 2315.85 2229.97 Q2317.68 2233.51 2321.29 2233.51 Q2324.92 2233.51 2326.73 2229.97 Q2328.56 2226.4 2328.56 2219.29 Q2328.56 2212.16 2326.73 2208.62 Q2324.92 2205.06 2321.29 2205.06 M2321.29 2201.35 Q2327.1 2201.35 2330.15 2205.96 Q2333.23 2210.54 2333.23 2219.29 Q2333.23 2228.02 2330.15 2232.63 Q2327.1 2237.21 2321.29 2237.21 Q2315.48 2237.21 2312.4 2232.63 Q2309.34 2228.02 2309.34 2219.29 Q2309.34 2210.54 2312.4 2205.96 Q2315.48 2201.35 2321.29 2201.35 Z" fill="#000000" fill-rule="evenodd" fill-opacity="1" /><path clip-path="url(#clip560)" d="M2351.45 2205.06 Q2347.84 2205.06 2346.01 2208.62 Q2344.2 2212.16 2344.2 2219.29 Q2344.2 2226.4 2346.01 2229.97 Q2347.84 2233.51 2351.45 2233.51 Q2355.08 2233.51 2356.89 2229.97 Q2358.72 2226.4 2358.72 2219.29 Q2358.72 2212.16 2356.89 2208.62 Q2355.08 2205.06 2351.45 2205.06 M2351.45 2201.35 Q2357.26 2201.35 2360.31 2205.96 Q2363.39 2210.54 2363.39 2219.29 Q2363.39 2228.02 2360.31 2232.63 Q2357.26 2237.21 2351.45 2237.21 Q2345.64 2237.21 2342.56 2232.63 Q2339.5 2228.02 2339.5 2219.29 Q2339.5 2210.54 2342.56 2205.96 Q2345.64 2201.35 2351.45 2201.35 Z" fill="#000000" fill-rule="evenodd" fill-opacity="1" /><path clip-path="url(#clip560)" d="M1190.71 2269.48 L1190.71 2274.35 L1185.11 2274.35 Q1181.96 2274.35 1180.72 2275.62 Q1179.51 2276.89 1179.51 2280.2 L1179.51 2283.36 L1189.15 2283.36 L1189.15 2287.91 L1179.51 2287.91 L1179.51 2319 L1173.62 2319 L1173.62 2287.91 L1168.02 2287.91 L1168.02 2283.36 L1173.62 2283.36 L1173.62 2280.87 Q1173.62 2274.92 1176.39 2272.22 Q1179.16 2269.48 1185.17 2269.48 L1190.71 2269.48 Z" fill="#000000" fill-rule="evenodd" fill-opacity="1" /><path clip-path="url(#clip560)" d="M1226.11 2299.72 L1226.11 2302.58 L1199.18 2302.58 Q1199.56 2308.63 1202.81 2311.81 Q1206.09 2314.96 1211.91 2314.96 Q1215.28 2314.96 1218.43 2314.13 Q1221.62 2313.31 1224.74 2311.65 L1224.74 2317.19 Q1221.59 2318.53 1218.28 2319.23 Q1214.97 2319.93 1211.56 2319.93 Q1203.03 2319.93 1198.03 2314.96 Q1193.07 2310 1193.07 2301.53 Q1193.07 2292.78 1197.78 2287.65 Q1202.52 2282.5 1210.54 2282.5 Q1217.73 2282.5 1221.9 2287.14 Q1226.11 2291.76 1226.11 2299.72 M1220.25 2298 Q1220.19 2293.19 1217.54 2290.33 Q1214.93 2287.46 1210.6 2287.46 Q1205.7 2287.46 1202.74 2290.23 Q1199.81 2293 1199.37 2298.03 L1220.25 2298 Z" fill="#000000" fill-rule="evenodd" fill-opacity="1" /><path clip-path="url(#clip560)" d="M1251.92 2301.08 Q1244.82 2301.08 1242.08 2302.71 Q1239.35 2304.33 1239.35 2308.25 Q1239.35 2311.36 1241.38 2313.21 Q1243.45 2315.03 1246.98 2315.03 Q1251.85 2315.03 1254.78 2311.59 Q1257.74 2308.12 1257.74 2302.39 L1257.74 2301.08 L1251.92 2301.08 M1263.6 2298.67 L1263.6 2319 L1257.74 2319 L1257.74 2313.59 Q1255.74 2316.84 1252.75 2318.4 Q1249.75 2319.93 1245.43 2319.93 Q1239.95 2319.93 1236.7 2316.87 Q1233.49 2313.78 1233.49 2308.63 Q1233.49 2302.61 1237.5 2299.56 Q1241.54 2296.5 1249.53 2296.5 L1257.74 2296.5 L1257.74 2295.93 Q1257.74 2291.89 1255.07 2289.69 Q1252.43 2287.46 1247.62 2287.46 Q1244.57 2287.46 1241.67 2288.19 Q1238.77 2288.93 1236.1 2290.39 L1236.1 2284.98 Q1239.31 2283.74 1242.34 2283.13 Q1245.36 2282.5 1248.23 2282.5 Q1255.96 2282.5 1259.78 2286.51 Q1263.6 2290.52 1263.6 2298.67 Z" fill="#000000" fill-rule="evenodd" fill-opacity="1" /><path clip-path="url(#clip560)" d="M1281.46 2273.23 L1281.46 2283.36 L1293.52 2283.36 L1293.52 2287.91 L1281.46 2287.91 L1281.46 2307.26 Q1281.46 2311.62 1282.63 2312.86 Q1283.84 2314.1 1287.5 2314.1 L1293.52 2314.1 L1293.52 2319 L1287.5 2319 Q1280.72 2319 1278.14 2316.49 Q1275.57 2313.94 1275.57 2307.26 L1275.57 2287.91 L1271.27 2287.91 L1271.27 2283.36 L1275.57 2283.36 L1275.57 2273.23 L1281.46 2273.23 Z" fill="#000000" fill-rule="evenodd" fill-opacity="1" /><path clip-path="url(#clip560)" d="M1300.62 2304.94 L1300.62 2283.36 L1306.47 2283.36 L1306.47 2304.71 Q1306.47 2309.77 1308.45 2312.32 Q1310.42 2314.83 1314.37 2314.83 Q1319.11 2314.83 1321.85 2311.81 Q1324.61 2308.79 1324.61 2303.57 L1324.61 2283.36 L1330.47 2283.36 L1330.47 2319 L1324.61 2319 L1324.61 2313.53 Q1322.48 2316.78 1319.65 2318.37 Q1316.85 2319.93 1313.12 2319.93 Q1306.98 2319.93 1303.8 2316.11 Q1300.62 2312.29 1300.62 2304.94 M1315.35 2282.5 L1315.35 2282.5 Z" fill="#000000" fill-rule="evenodd" fill-opacity="1" /><path clip-path="url(#clip560)" d="M1363.19 2288.83 Q1362.2 2288.26 1361.03 2288 Q1359.88 2287.72 1358.48 2287.72 Q1353.51 2287.72 1350.84 2290.96 Q1348.2 2294.18 1348.2 2300.23 L1348.2 2319 L1342.31 2319 L1342.31 2283.36 L1348.2 2283.36 L1348.2 2288.89 Q1350.05 2285.65 1353.01 2284.09 Q1355.97 2282.5 1360.2 2282.5 Q1360.8 2282.5 1361.54 2282.59 Q1362.27 2282.66 1363.16 2282.81 L1363.19 2288.83 Z" fill="#000000" fill-rule="evenodd" fill-opacity="1" /><path clip-path="url(#clip560)" d="M1398.39 2299.72 L1398.39 2302.58 L1371.47 2302.58 Q1371.85 2308.63 1375.09 2311.81 Q1378.37 2314.96 1384.2 2314.96 Q1387.57 2314.96 1390.72 2314.13 Q1393.91 2313.31 1397.02 2311.65 L1397.02 2317.19 Q1393.87 2318.53 1390.56 2319.23 Q1387.25 2319.93 1383.85 2319.93 Q1375.32 2319.93 1370.32 2314.96 Q1365.36 2310 1365.36 2301.53 Q1365.36 2292.78 1370.07 2287.65 Q1374.81 2282.5 1382.83 2282.5 Q1390.02 2282.5 1394.19 2287.14 Q1398.39 2291.76 1398.39 2299.72 M1392.54 2298 Q1392.47 2293.19 1389.83 2290.33 Q1387.22 2287.46 1382.89 2287.46 Q1377.99 2287.46 1375.03 2290.23 Q1372.1 2293 1371.66 2298.03 L1392.54 2298 Z" fill="#000000" fill-rule="evenodd" fill-opacity="1" /><path clip-path="url(#clip560)" d="M1430.67 2313.59 L1441.17 2313.59 L1441.17 2277.34 L1429.74 2279.63 L1429.74 2273.78 L1441.11 2271.48 L1447.54 2271.48 L1447.54 2313.59 L1458.04 2313.59 L1458.04 2319 L1430.67 2319 L1430.67 2313.59 Z" fill="#000000" fill-rule="evenodd" fill-opacity="1" /><polyline clip-path="url(#clip562)" style="stroke:#000000; stroke-linecap:butt; stroke-linejoin:round; stroke-width:2; stroke-opacity:0.1; fill:none" points="
  273.302,2134.34 2352.76,2134.34 
  "/>
<polyline clip-path="url(#clip562)" style="stroke:#000000; stroke-linecap:butt; stroke-linejoin:round; stroke-width:2; stroke-opacity:0.1; fill:none" points="
  273.302,1649.15 2352.76,1649.15 
  "/>
<polyline clip-path="url(#clip562)" style="stroke:#000000; stroke-linecap:butt; stroke-linejoin:round; stroke-width:2; stroke-opacity:0.1; fill:none" points="
  273.302,1163.95 2352.76,1163.95 
  "/>
<polyline clip-path="url(#clip562)" style="stroke:#000000; stroke-linecap:butt; stroke-linejoin:round; stroke-width:2; stroke-opacity:0.1; fill:none" points="
  273.302,678.759 2352.76,678.759 
  "/>
<polyline clip-path="url(#clip562)" style="stroke:#000000; stroke-linecap:butt; stroke-linejoin:round; stroke-width:2; stroke-opacity:0.1; fill:none" points="
  273.302,193.565 2352.76,193.565 
  "/>
<polyline clip-path="url(#clip560)" style="stroke:#000000; stroke-linecap:butt; stroke-linejoin:round; stroke-width:4; stroke-opacity:1; fill:none" points="
  273.302,2174.14 273.302,153.712 
  "/>
<polyline clip-path="url(#clip560)" style="stroke:#000000; stroke-linecap:butt; stroke-linejoin:round; stroke-width:4; stroke-opacity:1; fill:none" points="
  273.302,2134.34 292.2,2134.34 
  "/>
<polyline clip-path="url(#clip560)" style="stroke:#000000; stroke-linecap:butt; stroke-linejoin:round; stroke-width:4; stroke-opacity:1; fill:none" points="
  273.302,1649.15 292.2,1649.15 
  "/>
<polyline clip-path="url(#clip560)" style="stroke:#000000; stroke-linecap:butt; stroke-linejoin:round; stroke-width:4; stroke-opacity:1; fill:none" points="
  273.302,1163.95 292.2,1163.95 
  "/>
<polyline clip-path="url(#clip560)" style="stroke:#000000; stroke-linecap:butt; stroke-linejoin:round; stroke-width:4; stroke-opacity:1; fill:none" points="
  273.302,678.759 292.2,678.759 
  "/>
<polyline clip-path="url(#clip560)" style="stroke:#000000; stroke-linecap:butt; stroke-linejoin:round; stroke-width:4; stroke-opacity:1; fill:none" points="
  273.302,193.565 292.2,193.565 
  "/>
<path clip-path="url(#clip560)" d="M149.965 2120.14 Q146.353 2120.14 144.525 2123.71 Q142.719 2127.25 142.719 2134.38 Q142.719 2141.48 144.525 2145.05 Q146.353 2148.59 149.965 2148.59 Q153.599 2148.59 155.404 2145.05 Q157.233 2141.48 157.233 2134.38 Q157.233 2127.25 155.404 2123.71 Q153.599 2120.14 149.965 2120.14 M149.965 2116.44 Q155.775 2116.44 158.83 2121.04 Q161.909 2125.63 161.909 2134.38 Q161.909 2143.11 158.83 2147.71 Q155.775 2152.29 149.965 2152.29 Q144.154 2152.29 141.076 2147.71 Q138.02 2143.11 138.02 2134.38 Q138.02 2125.63 141.076 2121.04 Q144.154 2116.44 149.965 2116.44 Z" fill="#000000" fill-rule="evenodd" fill-opacity="1" /><path clip-path="url(#clip560)" d="M170.126 2145.74 L175.011 2145.74 L175.011 2151.62 L170.126 2151.62 L170.126 2145.74 Z" fill="#000000" fill-rule="evenodd" fill-opacity="1" /><path clip-path="url(#clip560)" d="M195.196 2120.14 Q191.585 2120.14 189.756 2123.71 Q187.95 2127.25 187.95 2134.38 Q187.95 2141.48 189.756 2145.05 Q191.585 2148.59 195.196 2148.59 Q198.83 2148.59 200.636 2145.05 Q202.464 2141.48 202.464 2134.38 Q202.464 2127.25 200.636 2123.71 Q198.83 2120.14 195.196 2120.14 M195.196 2116.44 Q201.006 2116.44 204.061 2121.04 Q207.14 2125.63 207.14 2134.38 Q207.14 2143.11 204.061 2147.71 Q201.006 2152.29 195.196 2152.29 Q189.386 2152.29 186.307 2147.71 Q183.251 2143.11 183.251 2134.38 Q183.251 2125.63 186.307 2121.04 Q189.386 2116.44 195.196 2116.44 Z" fill="#000000" fill-rule="evenodd" fill-opacity="1" /><path clip-path="url(#clip560)" d="M225.358 2120.14 Q221.747 2120.14 219.918 2123.71 Q218.112 2127.25 218.112 2134.38 Q218.112 2141.48 219.918 2145.05 Q221.747 2148.59 225.358 2148.59 Q228.992 2148.59 230.797 2145.05 Q232.626 2141.48 232.626 2134.38 Q232.626 2127.25 230.797 2123.71 Q228.992 2120.14 225.358 2120.14 M225.358 2116.44 Q231.168 2116.44 234.223 2121.04 Q237.302 2125.63 237.302 2134.38 Q237.302 2143.11 234.223 2147.71 Q231.168 2152.29 225.358 2152.29 Q219.547 2152.29 216.469 2147.71 Q213.413 2143.11 213.413 2134.38 Q213.413 2125.63 216.469 2121.04 Q219.547 2116.44 225.358 2116.44 Z" fill="#000000" fill-rule="evenodd" fill-opacity="1" /><path clip-path="url(#clip560)" d="M150.96 1634.95 Q147.349 1634.95 145.52 1638.51 Q143.715 1642.05 143.715 1649.18 Q143.715 1656.29 145.52 1659.85 Q147.349 1663.4 150.96 1663.4 Q154.594 1663.4 156.4 1659.85 Q158.228 1656.29 158.228 1649.18 Q158.228 1642.05 156.4 1638.51 Q154.594 1634.95 150.96 1634.95 M150.96 1631.24 Q156.77 1631.24 159.826 1635.85 Q162.904 1640.43 162.904 1649.18 Q162.904 1657.91 159.826 1662.52 Q156.77 1667.1 150.96 1667.1 Q145.15 1667.1 142.071 1662.52 Q139.016 1657.91 139.016 1649.18 Q139.016 1640.43 142.071 1635.85 Q145.15 1631.24 150.96 1631.24 Z" fill="#000000" fill-rule="evenodd" fill-opacity="1" /><path clip-path="url(#clip560)" d="M171.122 1660.55 L176.006 1660.55 L176.006 1666.43 L171.122 1666.43 L171.122 1660.55 Z" fill="#000000" fill-rule="evenodd" fill-opacity="1" /><path clip-path="url(#clip560)" d="M190.219 1662.49 L206.538 1662.49 L206.538 1666.43 L184.594 1666.43 L184.594 1662.49 Q187.256 1659.74 191.839 1655.11 Q196.446 1650.46 197.626 1649.11 Q199.872 1646.59 200.751 1644.85 Q201.654 1643.1 201.654 1641.41 Q201.654 1638.65 199.71 1636.92 Q197.788 1635.18 194.687 1635.18 Q192.487 1635.18 190.034 1635.94 Q187.603 1636.71 184.825 1638.26 L184.825 1633.54 Q187.65 1632.4 190.103 1631.82 Q192.557 1631.24 194.594 1631.24 Q199.964 1631.24 203.159 1633.93 Q206.353 1636.61 206.353 1641.1 Q206.353 1643.23 205.543 1645.16 Q204.756 1647.05 202.649 1649.65 Q202.071 1650.32 198.969 1653.54 Q195.867 1656.73 190.219 1662.49 Z" fill="#000000" fill-rule="evenodd" fill-opacity="1" /><path clip-path="url(#clip560)" d="M216.399 1631.87 L234.756 1631.87 L234.756 1635.8 L220.682 1635.8 L220.682 1644.28 Q221.7 1643.93 222.719 1643.77 Q223.737 1643.58 224.756 1643.58 Q230.543 1643.58 233.922 1646.75 Q237.302 1649.92 237.302 1655.34 Q237.302 1660.92 233.83 1664.02 Q230.358 1667.1 224.038 1667.1 Q221.862 1667.1 219.594 1666.73 Q217.348 1666.36 214.941 1665.62 L214.941 1660.92 Q217.024 1662.05 219.247 1662.61 Q221.469 1663.16 223.946 1663.16 Q227.95 1663.16 230.288 1661.06 Q232.626 1658.95 232.626 1655.34 Q232.626 1651.73 230.288 1649.62 Q227.95 1647.52 223.946 1647.52 Q222.071 1647.52 220.196 1647.93 Q218.344 1648.35 216.399 1649.23 L216.399 1631.87 Z" fill="#000000" fill-rule="evenodd" fill-opacity="1" /><path clip-path="url(#clip560)" d="M149.965 1149.75 Q146.353 1149.75 144.525 1153.32 Q142.719 1156.86 142.719 1163.99 Q142.719 1171.1 144.525 1174.66 Q146.353 1178.2 149.965 1178.2 Q153.599 1178.2 155.404 1174.66 Q157.233 1171.1 157.233 1163.99 Q157.233 1156.86 155.404 1153.32 Q153.599 1149.75 149.965 1149.75 M149.965 1146.05 Q155.775 1146.05 158.83 1150.66 Q161.909 1155.24 161.909 1163.99 Q161.909 1172.72 158.83 1177.32 Q155.775 1181.91 149.965 1181.91 Q144.154 1181.91 141.076 1177.32 Q138.02 1172.72 138.02 1163.99 Q138.02 1155.24 141.076 1150.66 Q144.154 1146.05 149.965 1146.05 Z" fill="#000000" fill-rule="evenodd" fill-opacity="1" /><path clip-path="url(#clip560)" d="M170.126 1175.35 L175.011 1175.35 L175.011 1181.23 L170.126 1181.23 L170.126 1175.35 Z" fill="#000000" fill-rule="evenodd" fill-opacity="1" /><path clip-path="url(#clip560)" d="M185.242 1146.67 L203.599 1146.67 L203.599 1150.61 L189.525 1150.61 L189.525 1159.08 Q190.543 1158.73 191.562 1158.57 Q192.58 1158.39 193.599 1158.39 Q199.386 1158.39 202.765 1161.56 Q206.145 1164.73 206.145 1170.15 Q206.145 1175.72 202.673 1178.83 Q199.2 1181.91 192.881 1181.91 Q190.705 1181.91 188.437 1181.54 Q186.191 1181.16 183.784 1180.42 L183.784 1175.72 Q185.867 1176.86 188.089 1177.41 Q190.312 1177.97 192.788 1177.97 Q196.793 1177.97 199.131 1175.86 Q201.469 1173.76 201.469 1170.15 Q201.469 1166.54 199.131 1164.43 Q196.793 1162.32 192.788 1162.32 Q190.913 1162.32 189.038 1162.74 Q187.187 1163.16 185.242 1164.04 L185.242 1146.67 Z" fill="#000000" fill-rule="evenodd" fill-opacity="1" /><path clip-path="url(#clip560)" d="M225.358 1149.75 Q221.747 1149.75 219.918 1153.32 Q218.112 1156.86 218.112 1163.99 Q218.112 1171.1 219.918 1174.66 Q221.747 1178.2 225.358 1178.2 Q228.992 1178.2 230.797 1174.66 Q232.626 1171.1 232.626 1163.99 Q232.626 1156.86 230.797 1153.32 Q228.992 1149.75 225.358 1149.75 M225.358 1146.05 Q231.168 1146.05 234.223 1150.66 Q237.302 1155.24 237.302 1163.99 Q237.302 1172.72 234.223 1177.32 Q231.168 1181.91 225.358 1181.91 Q219.547 1181.91 216.469 1177.32 Q213.413 1172.72 213.413 1163.99 Q213.413 1155.24 216.469 1150.66 Q219.547 1146.05 225.358 1146.05 Z" fill="#000000" fill-rule="evenodd" fill-opacity="1" /><path clip-path="url(#clip560)" d="M150.96 664.558 Q147.349 664.558 145.52 668.123 Q143.715 671.665 143.715 678.794 Q143.715 685.901 145.52 689.465 Q147.349 693.007 150.96 693.007 Q154.594 693.007 156.4 689.465 Q158.228 685.901 158.228 678.794 Q158.228 671.665 156.4 668.123 Q154.594 664.558 150.96 664.558 M150.96 660.854 Q156.77 660.854 159.826 665.461 Q162.904 670.044 162.904 678.794 Q162.904 687.521 159.826 692.127 Q156.77 696.711 150.96 696.711 Q145.15 696.711 142.071 692.127 Q139.016 687.521 139.016 678.794 Q139.016 670.044 142.071 665.461 Q145.15 660.854 150.96 660.854 Z" fill="#000000" fill-rule="evenodd" fill-opacity="1" /><path clip-path="url(#clip560)" d="M171.122 690.16 L176.006 690.16 L176.006 696.039 L171.122 696.039 L171.122 690.16 Z" fill="#000000" fill-rule="evenodd" fill-opacity="1" /><path clip-path="url(#clip560)" d="M185.011 661.479 L207.233 661.479 L207.233 663.47 L194.687 696.039 L189.802 696.039 L201.608 665.415 L185.011 665.415 L185.011 661.479 Z" fill="#000000" fill-rule="evenodd" fill-opacity="1" /><path clip-path="url(#clip560)" d="M216.399 661.479 L234.756 661.479 L234.756 665.415 L220.682 665.415 L220.682 673.887 Q221.7 673.54 222.719 673.378 Q223.737 673.192 224.756 673.192 Q230.543 673.192 233.922 676.364 Q237.302 679.535 237.302 684.952 Q237.302 690.53 233.83 693.632 Q230.358 696.711 224.038 696.711 Q221.862 696.711 219.594 696.34 Q217.348 695.97 214.941 695.229 L214.941 690.53 Q217.024 691.664 219.247 692.22 Q221.469 692.776 223.946 692.776 Q227.95 692.776 230.288 690.669 Q232.626 688.563 232.626 684.952 Q232.626 681.34 230.288 679.234 Q227.95 677.128 223.946 677.128 Q222.071 677.128 220.196 677.544 Q218.344 677.961 216.399 678.84 L216.399 661.479 Z" fill="#000000" fill-rule="evenodd" fill-opacity="1" /><path clip-path="url(#clip560)" d="M140.775 206.91 L148.414 206.91 L148.414 180.544 L140.103 182.211 L140.103 177.951 L148.367 176.285 L153.043 176.285 L153.043 206.91 L160.682 206.91 L160.682 210.845 L140.775 210.845 L140.775 206.91 Z" fill="#000000" fill-rule="evenodd" fill-opacity="1" /><path clip-path="url(#clip560)" d="M170.126 204.965 L175.011 204.965 L175.011 210.845 L170.126 210.845 L170.126 204.965 Z" fill="#000000" fill-rule="evenodd" fill-opacity="1" /><path clip-path="url(#clip560)" d="M195.196 179.363 Q191.585 179.363 189.756 182.928 Q187.95 186.47 187.95 193.6 Q187.95 200.706 189.756 204.271 Q191.585 207.812 195.196 207.812 Q198.83 207.812 200.636 204.271 Q202.464 200.706 202.464 193.6 Q202.464 186.47 200.636 182.928 Q198.83 179.363 195.196 179.363 M195.196 175.66 Q201.006 175.66 204.061 180.266 Q207.14 184.85 207.14 193.6 Q207.14 202.326 204.061 206.933 Q201.006 211.516 195.196 211.516 Q189.386 211.516 186.307 206.933 Q183.251 202.326 183.251 193.6 Q183.251 184.85 186.307 180.266 Q189.386 175.66 195.196 175.66 Z" fill="#000000" fill-rule="evenodd" fill-opacity="1" /><path clip-path="url(#clip560)" d="M225.358 179.363 Q221.747 179.363 219.918 182.928 Q218.112 186.47 218.112 193.6 Q218.112 200.706 219.918 204.271 Q221.747 207.812 225.358 207.812 Q228.992 207.812 230.797 204.271 Q232.626 200.706 232.626 193.6 Q232.626 186.47 230.797 182.928 Q228.992 179.363 225.358 179.363 M225.358 175.66 Q231.168 175.66 234.223 180.266 Q237.302 184.85 237.302 193.6 Q237.302 202.326 234.223 206.933 Q231.168 211.516 225.358 211.516 Q219.547 211.516 216.469 206.933 Q213.413 202.326 213.413 193.6 Q213.413 184.85 216.469 180.266 Q219.547 175.66 225.358 175.66 Z" fill="#000000" fill-rule="evenodd" fill-opacity="1" /><path clip-path="url(#clip560)" d="M38.239 1285.99 L43.1087 1285.99 L43.1087 1291.59 Q43.1087 1294.74 44.3819 1295.98 Q45.655 1297.19 48.9652 1297.19 L52.1162 1297.19 L52.1162 1287.55 L56.6677 1287.55 L56.6677 1297.19 L87.7642 1297.19 L87.7642 1303.08 L56.6677 1303.08 L56.6677 1308.68 L52.1162 1308.68 L52.1162 1303.08 L49.6336 1303.08 Q43.6816 1303.08 40.9762 1300.31 Q38.239 1297.54 38.239 1291.53 L38.239 1285.99 Z" fill="#000000" fill-rule="evenodd" fill-opacity="1" /><path clip-path="url(#clip560)" d="M68.4761 1250.6 L71.3406 1250.6 L71.3406 1277.52 Q77.3881 1277.14 80.5709 1273.89 Q83.7219 1270.62 83.7219 1264.79 Q83.7219 1261.42 82.8944 1258.27 Q82.0669 1255.08 80.4118 1251.96 L85.9499 1251.96 Q87.2867 1255.11 87.987 1258.42 Q88.6872 1261.74 88.6872 1265.14 Q88.6872 1273.67 83.7219 1278.67 Q78.7567 1283.63 70.2903 1283.63 Q61.5374 1283.63 56.4131 1278.92 Q51.2568 1274.18 51.2568 1266.16 Q51.2568 1258.97 55.9038 1254.8 Q60.5189 1250.6 68.4761 1250.6 M66.7573 1256.45 Q61.9512 1256.52 59.0866 1259.16 Q56.2221 1261.77 56.2221 1266.1 Q56.2221 1271 58.9912 1273.96 Q61.7602 1276.89 66.7892 1277.33 L66.7573 1256.45 Z" fill="#000000" fill-rule="evenodd" fill-opacity="1" /><path clip-path="url(#clip560)" d="M69.8447 1224.78 Q69.8447 1231.88 71.4679 1234.62 Q73.0912 1237.35 77.0061 1237.35 Q80.1253 1237.35 81.9714 1235.32 Q83.7856 1233.25 83.7856 1229.72 Q83.7856 1224.85 80.3481 1221.92 Q76.8788 1218.96 71.1497 1218.96 L69.8447 1218.96 L69.8447 1224.78 M67.4257 1213.1 L87.7642 1213.1 L87.7642 1218.96 L82.3533 1218.96 Q85.5998 1220.96 87.1594 1223.95 Q88.6872 1226.95 88.6872 1231.28 Q88.6872 1236.75 85.6316 1240 Q82.5443 1243.21 77.3881 1243.21 Q71.3725 1243.21 68.3169 1239.2 Q65.2614 1235.16 65.2614 1227.17 L65.2614 1218.96 L64.6885 1218.96 Q60.6462 1218.96 58.4501 1221.63 Q56.2221 1224.27 56.2221 1229.08 Q56.2221 1232.13 56.9541 1235.03 Q57.6862 1237.93 59.1503 1240.6 L53.7395 1240.6 Q52.4981 1237.39 51.8934 1234.36 Q51.2568 1231.34 51.2568 1228.47 Q51.2568 1220.74 55.2672 1216.92 Q59.2776 1213.1 67.4257 1213.1 Z" fill="#000000" fill-rule="evenodd" fill-opacity="1" /><path clip-path="url(#clip560)" d="M41.9947 1195.25 L52.1162 1195.25 L52.1162 1183.18 L56.6677 1183.18 L56.6677 1195.25 L76.0194 1195.25 Q80.3799 1195.25 81.6213 1194.07 Q82.8626 1192.86 82.8626 1189.2 L82.8626 1183.18 L87.7642 1183.18 L87.7642 1189.2 Q87.7642 1195.98 85.2497 1198.56 Q82.7034 1201.13 76.0194 1201.13 L56.6677 1201.13 L56.6677 1205.43 L52.1162 1205.43 L52.1162 1201.13 L41.9947 1201.13 L41.9947 1195.25 Z" fill="#000000" fill-rule="evenodd" fill-opacity="1" /><path clip-path="url(#clip560)" d="M73.6959 1176.08 L52.1162 1176.08 L52.1162 1170.23 L73.4731 1170.23 Q78.5339 1170.23 81.0802 1168.25 Q83.5946 1166.28 83.5946 1162.33 Q83.5946 1157.59 80.5709 1154.85 Q77.5472 1152.09 72.3273 1152.09 L52.1162 1152.09 L52.1162 1146.23 L87.7642 1146.23 L87.7642 1152.09 L82.2896 1152.09 Q85.5362 1154.22 87.1276 1157.05 Q88.6872 1159.85 88.6872 1163.58 Q88.6872 1169.72 84.8678 1172.9 Q81.0483 1176.08 73.6959 1176.08 M51.2568 1161.35 L51.2568 1161.35 Z" fill="#000000" fill-rule="evenodd" fill-opacity="1" /><path clip-path="url(#clip560)" d="M57.5907 1113.51 Q57.0178 1114.5 56.7632 1115.67 Q56.4767 1116.82 56.4767 1118.22 Q56.4767 1123.19 59.7232 1125.86 Q62.9379 1128.5 68.9853 1128.5 L87.7642 1128.5 L87.7642 1134.39 L52.1162 1134.39 L52.1162 1128.5 L57.6544 1128.5 Q54.4079 1126.65 52.8483 1123.69 Q51.2568 1120.73 51.2568 1116.5 Q51.2568 1115.9 51.3523 1115.16 Q51.416 1114.43 51.5751 1113.54 L57.5907 1113.51 Z" fill="#000000" fill-rule="evenodd" fill-opacity="1" /><path clip-path="url(#clip560)" d="M68.4761 1078.31 L71.3406 1078.31 L71.3406 1105.23 Q77.3881 1104.85 80.5709 1101.61 Q83.7219 1098.33 83.7219 1092.5 Q83.7219 1089.13 82.8944 1085.98 Q82.0669 1082.8 80.4118 1079.68 L85.9499 1079.68 Q87.2867 1082.83 87.987 1086.14 Q88.6872 1089.45 88.6872 1092.85 Q88.6872 1101.38 83.7219 1106.38 Q78.7567 1111.35 70.2903 1111.35 Q61.5374 1111.35 56.4131 1106.63 Q51.2568 1101.89 51.2568 1093.87 Q51.2568 1086.68 55.9038 1082.51 Q60.5189 1078.31 68.4761 1078.31 M66.7573 1084.16 Q61.9512 1084.23 59.0866 1086.87 Q56.2221 1089.48 56.2221 1093.81 Q56.2221 1098.71 58.9912 1101.67 Q61.7602 1104.6 66.7892 1105.04 L66.7573 1084.16 Z" fill="#000000" fill-rule="evenodd" fill-opacity="1" /><path clip-path="url(#clip560)" d="M82.3533 1041.61 L82.3533 1019.17 L87.7642 1019.17 L87.7642 1049.34 L82.3533 1049.34 Q78.5657 1045.68 72.2 1039.38 Q65.8025 1033.05 63.9564 1031.42 Q60.4871 1028.34 58.1 1027.13 Q55.681 1025.89 53.3575 1025.89 Q49.5699 1025.89 47.1828 1028.56 Q44.7956 1031.2 44.7956 1035.47 Q44.7956 1038.49 45.846 1041.86 Q46.8963 1045.21 49.0288 1049.02 L42.5358 1049.02 Q40.9762 1045.14 40.1805 1041.77 Q39.3848 1038.39 39.3848 1035.59 Q39.3848 1028.21 43.0769 1023.82 Q46.769 1019.42 52.9437 1019.42 Q55.872 1019.42 58.5137 1020.54 Q61.1237 1021.62 64.6885 1024.52 Q65.6115 1025.31 70.0357 1029.58 Q74.428 1033.84 82.3533 1041.61 Z" fill="#000000" fill-rule="evenodd" fill-opacity="1" /><path clip-path="url(#clip560)" d="M1071.19 44.2197 Q1073.82 45.1109 1076.29 48.0275 Q1078.81 50.9442 1081.32 56.0483 L1089.62 72.576 L1080.83 72.576 L1073.09 57.061 Q1070.1 50.9847 1067.26 48.9997 Q1064.47 47.0148 1059.6 47.0148 L1050.69 47.0148 L1050.69 72.576 L1042.51 72.576 L1042.51 12.096 L1060.98 12.096 Q1071.35 12.096 1076.46 16.4305 Q1081.56 20.7649 1081.56 29.5149 Q1081.56 35.2267 1078.89 38.994 Q1076.25 42.7613 1071.19 44.2197 M1050.69 18.8205 L1050.69 40.2903 L1060.98 40.2903 Q1066.9 40.2903 1069.89 37.5762 Q1072.93 34.8216 1072.93 29.5149 Q1072.93 24.2082 1069.89 21.5346 Q1066.9 18.8205 1060.98 18.8205 L1050.69 18.8205 Z" fill="#000000" fill-rule="evenodd" fill-opacity="1" /><path clip-path="url(#clip560)" d="M1118.63 49.7694 Q1109.59 49.7694 1106.11 51.8354 Q1102.63 53.9013 1102.63 58.8839 Q1102.63 62.8538 1105.22 65.2034 Q1107.85 67.5124 1112.35 67.5124 Q1118.55 67.5124 1122.27 63.1374 Q1126.04 58.7219 1126.04 51.4303 L1126.04 49.7694 L1118.63 49.7694 M1133.49 46.6907 L1133.49 72.576 L1126.04 72.576 L1126.04 65.6895 Q1123.49 69.8214 1119.68 71.8063 Q1115.87 73.7508 1110.36 73.7508 Q1103.39 73.7508 1099.26 69.8619 Q1095.17 65.9325 1095.17 59.3701 Q1095.17 51.7138 1100.28 47.825 Q1105.42 43.9361 1115.59 43.9361 L1126.04 43.9361 L1126.04 43.2069 Q1126.04 38.0623 1122.64 35.2672 Q1119.27 32.4315 1113.16 32.4315 Q1109.27 32.4315 1105.58 33.3632 Q1101.9 34.295 1098.49 36.1584 L1098.49 29.2718 Q1102.58 27.692 1106.43 26.9223 Q1110.28 26.1121 1113.93 26.1121 Q1123.77 26.1121 1128.63 31.2163 Q1133.49 36.3204 1133.49 46.6907 Z" fill="#000000" fill-rule="evenodd" fill-opacity="1" /><path clip-path="url(#clip560)" d="M1186.56 45.1919 L1186.56 72.576 L1179.11 72.576 L1179.11 45.4349 Q1179.11 38.994 1176.59 35.7938 Q1174.08 32.5936 1169.06 32.5936 Q1163.02 32.5936 1159.54 36.4419 Q1156.06 40.2903 1156.06 46.9338 L1156.06 72.576 L1148.56 72.576 L1148.56 27.2059 L1156.06 27.2059 L1156.06 34.2544 Q1158.73 30.163 1162.34 28.1376 Q1165.98 26.1121 1170.72 26.1121 Q1178.54 26.1121 1182.55 30.9732 Q1186.56 35.7938 1186.56 45.1919 Z" fill="#000000" fill-rule="evenodd" fill-opacity="1" /><path clip-path="url(#clip560)" d="M1231.28 34.0924 L1231.28 9.54393 L1238.74 9.54393 L1238.74 72.576 L1231.28 72.576 L1231.28 65.7705 Q1228.93 69.8214 1225.33 71.8063 Q1221.76 73.7508 1216.74 73.7508 Q1208.52 73.7508 1203.33 67.1883 Q1198.19 60.6258 1198.19 49.9314 Q1198.19 39.2371 1203.33 32.6746 Q1208.52 26.1121 1216.74 26.1121 Q1221.76 26.1121 1225.33 28.0971 Q1228.93 30.0415 1231.28 34.0924 M1205.88 49.9314 Q1205.88 58.1548 1209.24 62.8538 Q1212.65 67.5124 1218.56 67.5124 Q1224.48 67.5124 1227.88 62.8538 Q1231.28 58.1548 1231.28 49.9314 Q1231.28 41.7081 1227.88 37.0496 Q1224.48 32.3505 1218.56 32.3505 Q1212.65 32.3505 1209.24 37.0496 Q1205.88 41.7081 1205.88 49.9314 Z" fill="#000000" fill-rule="evenodd" fill-opacity="1" /><path clip-path="url(#clip560)" d="M1271.67 32.4315 Q1265.67 32.4315 1262.19 37.1306 Q1258.71 41.7891 1258.71 49.9314 Q1258.71 58.0738 1262.15 62.7728 Q1265.63 67.4314 1271.67 67.4314 Q1277.62 67.4314 1281.11 62.7323 Q1284.59 58.0333 1284.59 49.9314 Q1284.59 41.8701 1281.11 37.1711 Q1277.62 32.4315 1271.67 32.4315 M1271.67 26.1121 Q1281.39 26.1121 1286.94 32.4315 Q1292.49 38.7509 1292.49 49.9314 Q1292.49 61.0714 1286.94 67.4314 Q1281.39 73.7508 1271.67 73.7508 Q1261.91 73.7508 1256.36 67.4314 Q1250.85 61.0714 1250.85 49.9314 Q1250.85 38.7509 1256.36 32.4315 Q1261.91 26.1121 1271.67 26.1121 Z" fill="#000000" fill-rule="evenodd" fill-opacity="1" /><path clip-path="url(#clip560)" d="M1340.17 35.9153 Q1342.97 30.8922 1346.85 28.5022 Q1350.74 26.1121 1356.01 26.1121 Q1363.1 26.1121 1366.95 31.0947 Q1370.79 36.0368 1370.79 45.1919 L1370.79 72.576 L1363.3 72.576 L1363.3 45.4349 Q1363.3 38.913 1360.99 35.7533 Q1358.68 32.5936 1353.94 32.5936 Q1348.15 32.5936 1344.79 36.4419 Q1341.43 40.2903 1341.43 46.9338 L1341.43 72.576 L1333.93 72.576 L1333.93 45.4349 Q1333.93 38.8725 1331.62 35.7533 Q1329.31 32.5936 1324.49 32.5936 Q1318.78 32.5936 1315.42 36.4824 Q1312.06 40.3308 1312.06 46.9338 L1312.06 72.576 L1304.56 72.576 L1304.56 27.2059 L1312.06 27.2059 L1312.06 34.2544 Q1314.61 30.082 1318.17 28.0971 Q1321.74 26.1121 1326.64 26.1121 Q1331.58 26.1121 1335.03 28.6237 Q1338.51 31.1352 1340.17 35.9153 Z" fill="#000000" fill-rule="evenodd" fill-opacity="1" /><path clip-path="url(#clip560)" d="M1441.89 34.0924 L1441.89 9.54393 L1449.34 9.54393 L1449.34 72.576 L1441.89 72.576 L1441.89 65.7705 Q1439.54 69.8214 1435.93 71.8063 Q1432.37 73.7508 1427.35 73.7508 Q1419.12 73.7508 1413.94 67.1883 Q1408.79 60.6258 1408.79 49.9314 Q1408.79 39.2371 1413.94 32.6746 Q1419.12 26.1121 1427.35 26.1121 Q1432.37 26.1121 1435.93 28.0971 Q1439.54 30.0415 1441.89 34.0924 M1416.49 49.9314 Q1416.49 58.1548 1419.85 62.8538 Q1423.25 67.5124 1429.17 67.5124 Q1435.08 67.5124 1438.49 62.8538 Q1441.89 58.1548 1441.89 49.9314 Q1441.89 41.7081 1438.49 37.0496 Q1435.08 32.3505 1429.17 32.3505 Q1423.25 32.3505 1419.85 37.0496 Q1416.49 41.7081 1416.49 49.9314 Z" fill="#000000" fill-rule="evenodd" fill-opacity="1" /><path clip-path="url(#clip560)" d="M1485.31 49.7694 Q1476.28 49.7694 1472.8 51.8354 Q1469.31 53.9013 1469.31 58.8839 Q1469.31 62.8538 1471.91 65.2034 Q1474.54 67.5124 1479.04 67.5124 Q1485.23 67.5124 1488.96 63.1374 Q1492.73 58.7219 1492.73 51.4303 L1492.73 49.7694 L1485.31 49.7694 M1500.18 46.6907 L1500.18 72.576 L1492.73 72.576 L1492.73 65.6895 Q1490.18 69.8214 1486.37 71.8063 Q1482.56 73.7508 1477.05 73.7508 Q1470.08 73.7508 1465.95 69.8619 Q1461.86 65.9325 1461.86 59.3701 Q1461.86 51.7138 1466.96 47.825 Q1472.11 43.9361 1482.28 43.9361 L1492.73 43.9361 L1492.73 43.2069 Q1492.73 38.0623 1489.32 35.2672 Q1485.96 32.4315 1479.85 32.4315 Q1475.96 32.4315 1472.27 33.3632 Q1468.58 34.295 1465.18 36.1584 L1465.18 29.2718 Q1469.27 27.692 1473.12 26.9223 Q1476.97 26.1121 1480.61 26.1121 Q1490.46 26.1121 1495.32 31.2163 Q1500.18 36.3204 1500.18 46.6907 Z" fill="#000000" fill-rule="evenodd" fill-opacity="1" /><path clip-path="url(#clip560)" d="M1522.91 14.324 L1522.91 27.2059 L1538.26 27.2059 L1538.26 32.9987 L1522.91 32.9987 L1522.91 57.6282 Q1522.91 63.1779 1524.41 64.7578 Q1525.94 66.3376 1530.6 66.3376 L1538.26 66.3376 L1538.26 72.576 L1530.6 72.576 Q1521.97 72.576 1518.69 69.3758 Q1515.41 66.1351 1515.41 57.6282 L1515.41 32.9987 L1509.94 32.9987 L1509.94 27.2059 L1515.41 27.2059 L1515.41 14.324 L1522.91 14.324 Z" fill="#000000" fill-rule="evenodd" fill-opacity="1" /><path clip-path="url(#clip560)" d="M1568.68 49.7694 Q1559.65 49.7694 1556.16 51.8354 Q1552.68 53.9013 1552.68 58.8839 Q1552.68 62.8538 1555.27 65.2034 Q1557.91 67.5124 1562.4 67.5124 Q1568.6 67.5124 1572.33 63.1374 Q1576.09 58.7219 1576.09 51.4303 L1576.09 49.7694 L1568.68 49.7694 M1583.55 46.6907 L1583.55 72.576 L1576.09 72.576 L1576.09 65.6895 Q1573.54 69.8214 1569.73 71.8063 Q1565.93 73.7508 1560.42 73.7508 Q1553.45 73.7508 1549.32 69.8619 Q1545.23 65.9325 1545.23 59.3701 Q1545.23 51.7138 1550.33 47.825 Q1555.48 43.9361 1565.64 43.9361 L1576.09 43.9361 L1576.09 43.2069 Q1576.09 38.0623 1572.69 35.2672 Q1569.33 32.4315 1563.21 32.4315 Q1559.32 32.4315 1555.64 33.3632 Q1551.95 34.295 1548.55 36.1584 L1548.55 29.2718 Q1552.64 27.692 1556.49 26.9223 Q1560.34 26.1121 1563.98 26.1121 Q1573.83 26.1121 1578.69 31.2163 Q1583.55 36.3204 1583.55 46.6907 Z" fill="#000000" fill-rule="evenodd" fill-opacity="1" /><circle clip-path="url(#clip562)" cx="2028.38" cy="1732.85" r="36" fill="#009af9" fill-rule="evenodd" fill-opacity="0.7" stroke="#000000" stroke-opacity="0.7" stroke-width="4.8"/>
<circle clip-path="url(#clip562)" cx="1997.94" cy="1768.2" r="36" fill="#009af9" fill-rule="evenodd" fill-opacity="0.7" stroke="#000000" stroke-opacity="0.7" stroke-width="4.8"/>
<circle clip-path="url(#clip562)" cx="2097.96" cy="1591.07" r="36" fill="#009af9" fill-rule="evenodd" fill-opacity="0.7" stroke="#000000" stroke-opacity="0.7" stroke-width="4.8"/>
<circle clip-path="url(#clip562)" cx="1919.87" cy="1788.45" r="36" fill="#009af9" fill-rule="evenodd" fill-opacity="0.7" stroke="#000000" stroke-opacity="0.7" stroke-width="4.8"/>
<circle clip-path="url(#clip562)" cx="1449.65" cy="2004.27" r="36" fill="#009af9" fill-rule="evenodd" fill-opacity="0.7" stroke="#000000" stroke-opacity="0.7" stroke-width="4.8"/>
<circle clip-path="url(#clip562)" cx="2269.66" cy="1321.56" r="36" fill="#009af9" fill-rule="evenodd" fill-opacity="0.7" stroke="#000000" stroke-opacity="0.7" stroke-width="4.8"/>
<circle clip-path="url(#clip562)" cx="2260.33" cy="1667.22" r="36" fill="#009af9" fill-rule="evenodd" fill-opacity="0.7" stroke="#000000" stroke-opacity="0.7" stroke-width="4.8"/>
<circle clip-path="url(#clip562)" cx="2199.45" cy="1573.09" r="36" fill="#009af9" fill-rule="evenodd" fill-opacity="0.7" stroke="#000000" stroke-opacity="0.7" stroke-width="4.8"/>
<circle clip-path="url(#clip562)" cx="2293.9" cy="1736.81" r="36" fill="#009af9" fill-rule="evenodd" fill-opacity="0.7" stroke="#000000" stroke-opacity="0.7" stroke-width="4.8"/>
<circle clip-path="url(#clip562)" cx="1996.96" cy="2097.64" r="36" fill="#009af9" fill-rule="evenodd" fill-opacity="0.7" stroke="#000000" stroke-opacity="0.7" stroke-width="4.8"/>
<circle clip-path="url(#clip562)" cx="1968.56" cy="1674.79" r="36" fill="#009af9" fill-rule="evenodd" fill-opacity="0.7" stroke="#000000" stroke-opacity="0.7" stroke-width="4.8"/>
<circle clip-path="url(#clip562)" cx="1927.75" cy="1498.4" r="36" fill="#009af9" fill-rule="evenodd" fill-opacity="0.7" stroke="#000000" stroke-opacity="0.7" stroke-width="4.8"/>
<circle clip-path="url(#clip562)" cx="1499.35" cy="1886.46" r="36" fill="#009af9" fill-rule="evenodd" fill-opacity="0.7" stroke="#000000" stroke-opacity="0.7" stroke-width="4.8"/>
<circle clip-path="url(#clip562)" cx="2167.01" cy="1637.92" r="36" fill="#009af9" fill-rule="evenodd" fill-opacity="0.7" stroke="#000000" stroke-opacity="0.7" stroke-width="4.8"/>
<circle clip-path="url(#clip562)" cx="2141.66" cy="1427.96" r="36" fill="#009af9" fill-rule="evenodd" fill-opacity="0.7" stroke="#000000" stroke-opacity="0.7" stroke-width="4.8"/>
<circle clip-path="url(#clip562)" cx="1677.83" cy="2041.3" r="36" fill="#009af9" fill-rule="evenodd" fill-opacity="0.7" stroke="#000000" stroke-opacity="0.7" stroke-width="4.8"/>
<circle clip-path="url(#clip562)" cx="1641.58" cy="2057.2" r="36" fill="#009af9" fill-rule="evenodd" fill-opacity="0.7" stroke="#000000" stroke-opacity="0.7" stroke-width="4.8"/>
<circle clip-path="url(#clip562)" cx="1640.66" cy="2071.05" r="36" fill="#009af9" fill-rule="evenodd" fill-opacity="0.7" stroke="#000000" stroke-opacity="0.7" stroke-width="4.8"/>
<circle clip-path="url(#clip562)" cx="1870.02" cy="2116.96" r="36" fill="#009af9" fill-rule="evenodd" fill-opacity="0.7" stroke="#000000" stroke-opacity="0.7" stroke-width="4.8"/>
<circle clip-path="url(#clip562)" cx="1948.96" cy="1994.01" r="36" fill="#009af9" fill-rule="evenodd" fill-opacity="0.7" stroke="#000000" stroke-opacity="0.7" stroke-width="4.8"/>
<circle clip-path="url(#clip562)" cx="1867.38" cy="1947.03" r="36" fill="#009af9" fill-rule="evenodd" fill-opacity="0.7" stroke="#000000" stroke-opacity="0.7" stroke-width="4.8"/>
<circle clip-path="url(#clip562)" cx="1806.84" cy="1521.86" r="36" fill="#009af9" fill-rule="evenodd" fill-opacity="0.7" stroke="#000000" stroke-opacity="0.7" stroke-width="4.8"/>
<circle clip-path="url(#clip562)" cx="1922.86" cy="1578.15" r="36" fill="#009af9" fill-rule="evenodd" fill-opacity="0.7" stroke="#000000" stroke-opacity="0.7" stroke-width="4.8"/>
<circle clip-path="url(#clip562)" cx="1703.1" cy="608.115" r="36" fill="#e26f46" fill-rule="evenodd" fill-opacity="0.7" stroke="#000000" stroke-opacity="0.7" stroke-width="4.8"/>
<circle clip-path="url(#clip562)" cx="1853.29" cy="402.009" r="36" fill="#e26f46" fill-rule="evenodd" fill-opacity="0.7" stroke="#000000" stroke-opacity="0.7" stroke-width="4.8"/>
<circle clip-path="url(#clip562)" cx="1504.95" cy="622.976" r="36" fill="#e26f46" fill-rule="evenodd" fill-opacity="0.7" stroke="#000000" stroke-opacity="0.7" stroke-width="4.8"/>
<circle clip-path="url(#clip562)" cx="2282.36" cy="934.924" r="36" fill="#e26f46" fill-rule="evenodd" fill-opacity="0.7" stroke="#000000" stroke-opacity="0.7" stroke-width="4.8"/>
<circle clip-path="url(#clip562)" cx="1805.5" cy="558.05" r="36" fill="#e26f46" fill-rule="evenodd" fill-opacity="0.7" stroke="#000000" stroke-opacity="0.7" stroke-width="4.8"/>
<circle clip-path="url(#clip562)" cx="1928.33" cy="282.32" r="36" fill="#e26f46" fill-rule="evenodd" fill-opacity="0.7" stroke="#000000" stroke-opacity="0.7" stroke-width="4.8"/>
<circle clip-path="url(#clip562)" cx="1461.75" cy="847.227" r="36" fill="#e26f46" fill-rule="evenodd" fill-opacity="0.7" stroke="#000000" stroke-opacity="0.7" stroke-width="4.8"/>
<circle clip-path="url(#clip562)" cx="1683.54" cy="606.741" r="36" fill="#e26f46" fill-rule="evenodd" fill-opacity="0.7" stroke="#000000" stroke-opacity="0.7" stroke-width="4.8"/>
<circle clip-path="url(#clip562)" cx="1416.56" cy="559.98" r="36" fill="#e26f46" fill-rule="evenodd" fill-opacity="0.7" stroke="#000000" stroke-opacity="0.7" stroke-width="4.8"/>
<circle clip-path="url(#clip562)" cx="1948.33" cy="613.771" r="36" fill="#e26f46" fill-rule="evenodd" fill-opacity="0.7" stroke="#000000" stroke-opacity="0.7" stroke-width="4.8"/>
<circle clip-path="url(#clip562)" cx="1751.95" cy="676.105" r="36" fill="#e26f46" fill-rule="evenodd" fill-opacity="0.7" stroke="#000000" stroke-opacity="0.7" stroke-width="4.8"/>
<circle clip-path="url(#clip562)" cx="1532.14" cy="680.968" r="36" fill="#e26f46" fill-rule="evenodd" fill-opacity="0.7" stroke="#000000" stroke-opacity="0.7" stroke-width="4.8"/>
<circle clip-path="url(#clip562)" cx="1360.57" cy="816.577" r="36" fill="#e26f46" fill-rule="evenodd" fill-opacity="0.7" stroke="#000000" stroke-opacity="0.7" stroke-width="4.8"/>
<circle clip-path="url(#clip562)" cx="1569.59" cy="648.59" r="36" fill="#e26f46" fill-rule="evenodd" fill-opacity="0.7" stroke="#000000" stroke-opacity="0.7" stroke-width="4.8"/>
<circle clip-path="url(#clip562)" cx="2245.83" cy="821.948" r="36" fill="#e26f46" fill-rule="evenodd" fill-opacity="0.7" stroke="#000000" stroke-opacity="0.7" stroke-width="4.8"/>
<circle clip-path="url(#clip562)" cx="1431.98" cy="700.257" r="36" fill="#e26f46" fill-rule="evenodd" fill-opacity="0.7" stroke="#000000" stroke-opacity="0.7" stroke-width="4.8"/>
<circle clip-path="url(#clip562)" cx="1962.88" cy="1057.68" r="36" fill="#e26f46" fill-rule="evenodd" fill-opacity="0.7" stroke="#000000" stroke-opacity="0.7" stroke-width="4.8"/>
<circle clip-path="url(#clip562)" cx="1642.69" cy="350.931" r="36" fill="#e26f46" fill-rule="evenodd" fill-opacity="0.7" stroke="#000000" stroke-opacity="0.7" stroke-width="4.8"/>
<circle clip-path="url(#clip562)" cx="1874.4" cy="587.87" r="36" fill="#e26f46" fill-rule="evenodd" fill-opacity="0.7" stroke="#000000" stroke-opacity="0.7" stroke-width="4.8"/>
<circle clip-path="url(#clip562)" cx="1110.37" cy="1791.55" r="36" fill="#3da44d" fill-rule="evenodd" fill-opacity="0.7" stroke="#000000" stroke-opacity="0.7" stroke-width="4.8"/>
<circle clip-path="url(#clip562)" cx="377.516" cy="1911.28" r="36" fill="#3da44d" fill-rule="evenodd" fill-opacity="0.7" stroke="#000000" stroke-opacity="0.7" stroke-width="4.8"/>
<circle clip-path="url(#clip562)" cx="502.893" cy="1257.08" r="36" fill="#3da44d" fill-rule="evenodd" fill-opacity="0.7" stroke="#000000" stroke-opacity="0.7" stroke-width="4.8"/>
<circle clip-path="url(#clip562)" cx="723.772" cy="1940.17" r="36" fill="#3da44d" fill-rule="evenodd" fill-opacity="0.7" stroke="#000000" stroke-opacity="0.7" stroke-width="4.8"/>
<circle clip-path="url(#clip562)" cx="527.013" cy="1277.31" r="36" fill="#3da44d" fill-rule="evenodd" fill-opacity="0.7" stroke="#000000" stroke-opacity="0.7" stroke-width="4.8"/>
<circle clip-path="url(#clip562)" cx="967.283" cy="1425.17" r="36" fill="#3da44d" fill-rule="evenodd" fill-opacity="0.7" stroke="#000000" stroke-opacity="0.7" stroke-width="4.8"/>
<circle clip-path="url(#clip562)" cx="884.372" cy="1804.57" r="36" fill="#3da44d" fill-rule="evenodd" fill-opacity="0.7" stroke="#000000" stroke-opacity="0.7" stroke-width="4.8"/>
<circle clip-path="url(#clip562)" cx="748.554" cy="1213.08" r="36" fill="#3da44d" fill-rule="evenodd" fill-opacity="0.7" stroke="#000000" stroke-opacity="0.7" stroke-width="4.8"/>
<circle clip-path="url(#clip562)" cx="489.285" cy="1220.09" r="36" fill="#3da44d" fill-rule="evenodd" fill-opacity="0.7" stroke="#000000" stroke-opacity="0.7" stroke-width="4.8"/>
<circle clip-path="url(#clip562)" cx="1149.08" cy="2067.53" r="36" fill="#3da44d" fill-rule="evenodd" fill-opacity="0.7" stroke="#000000" stroke-opacity="0.7" stroke-width="4.8"/>
<circle clip-path="url(#clip562)" cx="332.155" cy="1940.07" r="36" fill="#3da44d" fill-rule="evenodd" fill-opacity="0.7" stroke="#000000" stroke-opacity="0.7" stroke-width="4.8"/>
<circle clip-path="url(#clip562)" cx="975.722" cy="1807.16" r="36" fill="#3da44d" fill-rule="evenodd" fill-opacity="0.7" stroke="#000000" stroke-opacity="0.7" stroke-width="4.8"/>
<circle clip-path="url(#clip562)" cx="1108.87" cy="1993.92" r="36" fill="#3da44d" fill-rule="evenodd" fill-opacity="0.7" stroke="#000000" stroke-opacity="0.7" stroke-width="4.8"/>
<circle clip-path="url(#clip562)" cx="977.429" cy="1953.19" r="36" fill="#3da44d" fill-rule="evenodd" fill-opacity="0.7" stroke="#000000" stroke-opacity="0.7" stroke-width="4.8"/>
<circle clip-path="url(#clip562)" cx="646.354" cy="1301.13" r="36" fill="#3da44d" fill-rule="evenodd" fill-opacity="0.7" stroke="#000000" stroke-opacity="0.7" stroke-width="4.8"/>
<circle clip-path="url(#clip562)" cx="844.601" cy="1415.97" r="36" fill="#3da44d" fill-rule="evenodd" fill-opacity="0.7" stroke="#000000" stroke-opacity="0.7" stroke-width="4.8"/>
<circle clip-path="url(#clip562)" cx="510.911" cy="1814.23" r="36" fill="#3da44d" fill-rule="evenodd" fill-opacity="0.7" stroke="#000000" stroke-opacity="0.7" stroke-width="4.8"/>
<circle clip-path="url(#clip562)" cx="846.298" cy="1840.36" r="36" fill="#3da44d" fill-rule="evenodd" fill-opacity="0.7" stroke="#000000" stroke-opacity="0.7" stroke-width="4.8"/>
<circle clip-path="url(#clip562)" cx="427.298" cy="522.848" r="36" fill="#c271d2" fill-rule="evenodd" fill-opacity="0.7" stroke="#000000" stroke-opacity="0.7" stroke-width="4.8"/>
<circle clip-path="url(#clip562)" cx="566.071" cy="1022.02" r="36" fill="#c271d2" fill-rule="evenodd" fill-opacity="0.7" stroke="#000000" stroke-opacity="0.7" stroke-width="4.8"/>
<circle clip-path="url(#clip562)" cx="604.082" cy="499.127" r="36" fill="#c271d2" fill-rule="evenodd" fill-opacity="0.7" stroke="#000000" stroke-opacity="0.7" stroke-width="4.8"/>
<circle clip-path="url(#clip562)" cx="1019.98" cy="879.383" r="36" fill="#c271d2" fill-rule="evenodd" fill-opacity="0.7" stroke="#000000" stroke-opacity="0.7" stroke-width="4.8"/>
<circle clip-path="url(#clip562)" cx="345.96" cy="1025.61" r="36" fill="#c271d2" fill-rule="evenodd" fill-opacity="0.7" stroke="#000000" stroke-opacity="0.7" stroke-width="4.8"/>
<circle clip-path="url(#clip562)" cx="980.258" cy="746.432" r="36" fill="#c271d2" fill-rule="evenodd" fill-opacity="0.7" stroke="#000000" stroke-opacity="0.7" stroke-width="4.8"/>
<circle clip-path="url(#clip562)" cx="576.215" cy="673.315" r="36" fill="#c271d2" fill-rule="evenodd" fill-opacity="0.7" stroke="#000000" stroke-opacity="0.7" stroke-width="4.8"/>
<circle clip-path="url(#clip562)" cx="562.274" cy="800.433" r="36" fill="#c271d2" fill-rule="evenodd" fill-opacity="0.7" stroke="#000000" stroke-opacity="0.7" stroke-width="4.8"/>
<circle clip-path="url(#clip562)" cx="907.595" cy="579.056" r="36" fill="#c271d2" fill-rule="evenodd" fill-opacity="0.7" stroke="#000000" stroke-opacity="0.7" stroke-width="4.8"/>
<circle clip-path="url(#clip562)" cx="556.124" cy="808.296" r="36" fill="#c271d2" fill-rule="evenodd" fill-opacity="0.7" stroke="#000000" stroke-opacity="0.7" stroke-width="4.8"/>
<circle clip-path="url(#clip562)" cx="1184.22" cy="837.896" r="36" fill="#c271d2" fill-rule="evenodd" fill-opacity="0.7" stroke="#000000" stroke-opacity="0.7" stroke-width="4.8"/>
<circle clip-path="url(#clip562)" cx="860.084" cy="509.589" r="36" fill="#c271d2" fill-rule="evenodd" fill-opacity="0.7" stroke="#000000" stroke-opacity="0.7" stroke-width="4.8"/>
<circle clip-path="url(#clip562)" cx="1012.32" cy="808.517" r="36" fill="#c271d2" fill-rule="evenodd" fill-opacity="0.7" stroke="#000000" stroke-opacity="0.7" stroke-width="4.8"/>
<circle clip-path="url(#clip562)" cx="560.039" cy="553.734" r="36" fill="#c271d2" fill-rule="evenodd" fill-opacity="0.7" stroke="#000000" stroke-opacity="0.7" stroke-width="4.8"/>
<circle clip-path="url(#clip562)" cx="725.358" cy="465.228" r="36" fill="#c271d2" fill-rule="evenodd" fill-opacity="0.7" stroke="#000000" stroke-opacity="0.7" stroke-width="4.8"/>
<circle clip-path="url(#clip562)" cx="1052.52" cy="247.08" r="36" fill="#c271d2" fill-rule="evenodd" fill-opacity="0.7" stroke="#000000" stroke-opacity="0.7" stroke-width="4.8"/>
<circle clip-path="url(#clip562)" cx="887.847" cy="216.46" r="36" fill="#c271d2" fill-rule="evenodd" fill-opacity="0.7" stroke="#000000" stroke-opacity="0.7" stroke-width="4.8"/>
<circle clip-path="url(#clip562)" cx="882.935" cy="907.903" r="36" fill="#c271d2" fill-rule="evenodd" fill-opacity="0.7" stroke="#000000" stroke-opacity="0.7" stroke-width="4.8"/>
<circle clip-path="url(#clip562)" cx="1208.74" cy="644.549" r="36" fill="#c271d2" fill-rule="evenodd" fill-opacity="0.7" stroke="#000000" stroke-opacity="0.7" stroke-width="4.8"/>
<circle clip-path="url(#clip562)" cx="496.459" cy="636.173" r="36" fill="#c271d2" fill-rule="evenodd" fill-opacity="0.7" stroke="#000000" stroke-opacity="0.7" stroke-width="4.8"/>
<circle clip-path="url(#clip562)" cx="717.351" cy="968.916" r="36" fill="#c271d2" fill-rule="evenodd" fill-opacity="0.7" stroke="#000000" stroke-opacity="0.7" stroke-width="4.8"/>
<circle clip-path="url(#clip562)" cx="779.217" cy="935.032" r="36" fill="#c271d2" fill-rule="evenodd" fill-opacity="0.7" stroke="#000000" stroke-opacity="0.7" stroke-width="4.8"/>
<circle clip-path="url(#clip562)" cx="407.193" cy="333.842" r="36" fill="#c271d2" fill-rule="evenodd" fill-opacity="0.7" stroke="#000000" stroke-opacity="0.7" stroke-width="4.8"/>
<circle clip-path="url(#clip562)" cx="656.373" cy="325.163" r="36" fill="#c271d2" fill-rule="evenodd" fill-opacity="0.7" stroke="#000000" stroke-opacity="0.7" stroke-width="4.8"/>
<circle clip-path="url(#clip562)" cx="929.17" cy="287.562" r="36" fill="#c271d2" fill-rule="evenodd" fill-opacity="0.7" stroke="#000000" stroke-opacity="0.7" stroke-width="4.8"/>
<circle clip-path="url(#clip562)" cx="1019.54" cy="210.894" r="36" fill="#c271d2" fill-rule="evenodd" fill-opacity="0.7" stroke="#000000" stroke-opacity="0.7" stroke-width="4.8"/>
<circle clip-path="url(#clip562)" cx="1389.06" cy="1322.31" r="36" fill="#ac8d18" fill-rule="evenodd" fill-opacity="0.7" stroke="#000000" stroke-opacity="0.7" stroke-width="4.8"/>
<circle clip-path="url(#clip562)" cx="1204.78" cy="1144.66" r="36" fill="#ac8d18" fill-rule="evenodd" fill-opacity="0.7" stroke="#000000" stroke-opacity="0.7" stroke-width="4.8"/>
<circle clip-path="url(#clip562)" cx="1290.8" cy="1262.54" r="36" fill="#ac8d18" fill-rule="evenodd" fill-opacity="0.7" stroke="#000000" stroke-opacity="0.7" stroke-width="4.8"/>
<circle clip-path="url(#clip562)" cx="1100.41" cy="1175.41" r="36" fill="#ac8d18" fill-rule="evenodd" fill-opacity="0.7" stroke="#000000" stroke-opacity="0.7" stroke-width="4.8"/>
<circle clip-path="url(#clip562)" cx="921.257" cy="1159.05" r="36" fill="#ac8d18" fill-rule="evenodd" fill-opacity="0.7" stroke="#000000" stroke-opacity="0.7" stroke-width="4.8"/>
<circle clip-path="url(#clip562)" cx="1434.84" cy="1508.13" r="36" fill="#ac8d18" fill-rule="evenodd" fill-opacity="0.7" stroke="#000000" stroke-opacity="0.7" stroke-width="4.8"/>
<circle clip-path="url(#clip562)" cx="1589.83" cy="1417.54" r="36" fill="#ac8d18" fill-rule="evenodd" fill-opacity="0.7" stroke="#000000" stroke-opacity="0.7" stroke-width="4.8"/>
<circle clip-path="url(#clip562)" cx="1627.79" cy="1523.7" r="36" fill="#ac8d18" fill-rule="evenodd" fill-opacity="0.7" stroke="#000000" stroke-opacity="0.7" stroke-width="4.8"/>
<circle clip-path="url(#clip562)" cx="1395.51" cy="1159.95" r="36" fill="#ac8d18" fill-rule="evenodd" fill-opacity="0.7" stroke="#000000" stroke-opacity="0.7" stroke-width="4.8"/>
<circle clip-path="url(#clip562)" cx="1597.67" cy="1011.71" r="36" fill="#ac8d18" fill-rule="evenodd" fill-opacity="0.7" stroke="#000000" stroke-opacity="0.7" stroke-width="4.8"/>
<circle clip-path="url(#clip562)" cx="1673.89" cy="1114.41" r="36" fill="#ac8d18" fill-rule="evenodd" fill-opacity="0.7" stroke="#000000" stroke-opacity="0.7" stroke-width="4.8"/>
<circle clip-path="url(#clip562)" cx="1177.64" cy="1224.77" r="36" fill="#ac8d18" fill-rule="evenodd" fill-opacity="0.7" stroke="#000000" stroke-opacity="0.7" stroke-width="4.8"/>
<circle clip-path="url(#clip562)" cx="1484.31" cy="1610.73" r="36" fill="#ac8d18" fill-rule="evenodd" fill-opacity="0.7" stroke="#000000" stroke-opacity="0.7" stroke-width="4.8"/>
<circle clip-path="url(#clip562)" cx="1161.38" cy="1098.7" r="36" fill="#ac8d18" fill-rule="evenodd" fill-opacity="0.7" stroke="#000000" stroke-opacity="0.7" stroke-width="4.8"/>
<circle clip-path="url(#clip562)" cx="1938.89" cy="1771.05" r="72" fill="#ffff00" fill-rule="evenodd" fill-opacity="0.7" stroke="#000000" stroke-opacity="0.7" stroke-width="4.8"/>
<circle clip-path="url(#clip562)" cx="1734.72" cy="651.423" r="72" fill="#ffff00" fill-rule="evenodd" fill-opacity="0.7" stroke="#000000" stroke-opacity="0.7" stroke-width="4.8"/>
<circle clip-path="url(#clip562)" cx="762.36" cy="1665.22" r="72" fill="#ffff00" fill-rule="evenodd" fill-opacity="0.7" stroke="#000000" stroke-opacity="0.7" stroke-width="4.8"/>
<circle clip-path="url(#clip562)" cx="766.354" cy="632.502" r="72" fill="#ffff00" fill-rule="evenodd" fill-opacity="0.7" stroke="#000000" stroke-opacity="0.7" stroke-width="4.8"/>
<circle clip-path="url(#clip562)" cx="1360.65" cy="1266.69" r="72" fill="#ffff00" fill-rule="evenodd" fill-opacity="0.7" stroke="#000000" stroke-opacity="0.7" stroke-width="4.8"/>
</svg>
